<svg width="109" height="22" viewBox="0 0 109 22" fill="none" xmlns="http://www.w3.org/2000/svg">
<path d="M70.3999 6.19998V0.599976H71.0999V2.89998H73.9999V0.599976H74.6999V6.09998H73.9999V3.59998H71.0999V6.19998H70.3999Z" fill="#231F20"/>
<path d="M75.7998 3.5C75.7998 2.6 75.9998 1.9 76.4998 1.3C76.9998 0.8 77.5998 0.5 78.3998 0.5C78.8998 0.5 79.3998 0.6 79.7998 0.9C80.1998 1.1 80.4998 1.5 80.6998 1.9C80.8998 2.3 80.9998 2.8 80.9998 3.4C80.9998 4 80.8998 4.5 80.6998 4.9C80.4998 5.3 80.1998 5.7 79.6998 5.9C79.2998 6.1 78.7998 6.2 78.3998 6.2C77.8998 6.2 77.3998 6.1 76.9998 5.8C76.5998 5.5 76.2998 5.2 76.0998 4.8C75.8998 4.4 75.7998 4 75.7998 3.5ZM76.4998 3.5C76.4998 4.2 76.6998 4.7 76.9998 5.1C77.3998 5.5 77.7998 5.7 78.3998 5.7C78.9998 5.7 79.3998 5.5 79.7998 5.1C80.1998 4.7 80.2998 4.2 80.2998 3.4C80.2998 2.9 80.1998 2.6 80.0998 2.2C79.8998 1.9 79.6998 1.6 79.3998 1.4C79.0998 1.2 78.7998 1.1 78.3998 1.1C77.8998 1.1 77.3998 1.3 77.0998 1.6C76.6998 2.1 76.4998 2.7 76.4998 3.5Z" fill="#231F20"/>
<path d="M83.4001 6.19998V1.29998H81.6001V0.599976H86.0001V1.29998H84.2001V6.19998H83.4001Z" fill="#231F20"/>
<path d="M86.6997 6.19998V0.599976H90.6997V1.29998H87.3997V2.99998H90.4997V3.69998H87.3997V5.59998H90.7997V6.29998L86.6997 6.19998Z" fill="#231F20"/>
<path d="M91.8999 6.19998V0.599976H92.5999V5.49998H95.2999V6.19998H91.8999Z" fill="#231F20"/>
<path d="M70.3999 14V8.5H72.4999C72.8999 8.5 73.2999 8.6 73.4999 8.7C73.7999 8.8 73.9999 9 74.0999 9.2C74.1999 9.4 74.2999 9.7 74.2999 9.9C74.2999 10.1 74.1999 10.4 74.0999 10.6C73.9999 10.8 73.7999 11 73.4999 11.1C73.7999 11.2 74.0999 11.4 74.2999 11.6C74.4999 11.8 74.5999 12.1 74.5999 12.4C74.5999 12.7 74.4999 12.9 74.3999 13.1C74.2999 13.3 74.1999 13.5 73.9999 13.6C73.7999 13.7 73.5999 13.8 73.3999 13.9C73.1999 14 72.8999 14 72.4999 14H70.3999ZM71.0999 10.8H72.2999C72.5999 10.8 72.8999 10.8 72.9999 10.7C73.1999 10.6 73.2999 10.6 73.3999 10.4C73.4999 10.3 73.4999 10.1 73.4999 9.9C73.4999 9.7 73.4999 9.6 73.3999 9.4C73.2999 9.3 73.1999 9.2 72.9999 9.1C72.7999 9 72.5999 9 72.1999 9H71.0999V10.8ZM71.0999 13.4H72.4999C72.6999 13.4 72.8999 13.4 72.9999 13.4C73.1999 13.4 73.2999 13.3 73.3999 13.2C73.4999 13.1 73.5999 13 73.6999 12.9C73.7999 12.8 73.7999 12.6 73.7999 12.4C73.7999 12.2 73.6999 12 73.5999 11.9C73.4999 11.7 73.2999 11.6 73.1999 11.6C72.9999 11.5 72.6999 11.5 72.3999 11.5H71.0999V13.4Z" fill="#231F20"/>
<path d="M79.2 8.5H79.9V11.7C79.9 12.3 79.8 12.7 79.7 13C79.6 13.3 79.3 13.6 79 13.8C78.7 14 78.2 14.1 77.7 14.1C77.2 14.1 76.8 14 76.4 13.8C76.1 13.6 75.8 13.4 75.7 13C75.6 12.7 75.5 12.2 75.5 11.6V8.5H76.2V11.7C76.2 12.2 76.2 12.5 76.3 12.8C76.4 13 76.5 13.2 76.8 13.3C77.1 13.4 77.3 13.5 77.6 13.5C78.1 13.5 78.5 13.4 78.8 13.1C79 12.9 79.1 12.4 79.1 11.7L79.2 8.5Z" fill="#231F20"/>
<path d="M80.8999 12.3L81.5999 12.2C81.5999 12.5 81.6999 12.7 81.7999 12.9C81.8999 13.1 82.0999 13.2 82.3999 13.3C82.6999 13.4 82.8999 13.5 83.2999 13.5C83.5999 13.5 83.7999 13.5 83.9999 13.4C84.1999 13.3 84.3999 13.2 84.4999 13.1C84.5999 13 84.6999 12.8 84.6999 12.6C84.6999 12.4 84.6999 12.3 84.4999 12.1C84.3999 12 84.1999 11.9 83.9999 11.8C83.7999 11.7 83.4999 11.7 82.9999 11.5C82.4999 11.4 82.0999 11.3 81.8999 11.2C81.5999 11.1 81.3999 10.9 81.2999 10.7C81.1999 10.5 81.0999 10.3 81.0999 10C81.0999 9.70002 81.1999 9.50002 81.2999 9.20002C81.4999 9.00002 81.6999 8.80003 81.9999 8.60003C82.2999 8.50003 82.5999 8.40002 82.9999 8.40002C83.3999 8.40002 83.7999 8.50003 84.0999 8.60003C84.3999 8.70003 84.6999 8.90002 84.7999 9.20002C84.9999 9.50002 85.0999 9.70003 85.0999 10.1L84.3999 10.2C84.3999 9.80002 84.1999 9.60002 83.9999 9.40002C83.7999 9.20002 83.4999 9.10003 82.9999 9.10003C82.5999 9.10003 82.1999 9.20002 81.9999 9.30002C81.7999 9.50003 81.6999 9.70002 81.6999 9.90002C81.6999 10.1 81.7999 10.3 81.8999 10.4C81.9999 10.5 82.3999 10.7 82.9999 10.8C83.5999 10.9 83.9999 11.1 84.1999 11.2C84.4999 11.4 84.7999 11.5 84.8999 11.8C85.0999 12 85.0999 12.3 85.0999 12.6C85.0999 12.9 84.9999 13.2 84.7999 13.4C84.5999 13.7 84.3999 13.9 84.0999 14C83.7999 14.1 83.3999 14.2 82.9999 14.2C82.4999 14.2 82.0999 14.1 81.6999 14C81.3999 13.9 81.0999 13.6 80.8999 13.3C80.9999 13 80.8999 12.6 80.8999 12.3Z" fill="#231F20"/>
<path d="M86.3999 14V8.5H87.0999V14H86.3999Z" fill="#231F20"/>
<path d="M88.5 14V8.5H89.3L92.2 12.9V8.5H92.9V14H92.1L89.2 9.6V14H88.5Z" fill="#231F20"/>
<path d="M94.1001 14V8.5H98.1001V9.2H94.8001V10.9H97.9001V11.6H94.8001V13.5H98.2001V14H94.1001Z" fill="#231F20"/>
<path d="M99 12.3L99.7 12.2C99.7 12.5 99.8 12.7 99.9 12.9C100 13.1 100.2 13.2 100.5 13.3C100.8 13.4 101 13.5 101.4 13.5C101.7 13.5 101.9 13.5 102.1 13.4C102.3 13.3 102.5 13.2 102.6 13.1C102.7 13 102.8 12.8 102.8 12.6C102.8 12.4 102.8 12.3 102.6 12.1C102.5 12 102.3 11.9 102.1 11.8C101.9 11.7 101.6 11.7 101.1 11.5C100.6 11.4 100.2 11.3 100 11.2C99.7 11.1 99.5 10.9 99.4 10.7C99.3 10.5 99.2 10.3 99.2 10C99.2 9.70002 99.3 9.50002 99.4 9.20002C99.6 9.00002 99.8 8.80003 100.1 8.60003C100.4 8.50003 100.7 8.40002 101.1 8.40002C101.5 8.40002 101.9 8.50003 102.2 8.60003C102.5 8.70003 102.8 8.90002 102.9 9.20002C103.1 9.50002 103.2 9.70003 103.2 10.1L102.5 10.2C102.5 9.80002 102.3 9.60002 102.1 9.40002C101.9 9.20002 101.6 9.10003 101.1 9.10003C100.7 9.10003 100.3 9.20002 100.1 9.30002C99.9 9.50003 99.8 9.70002 99.8 9.90002C99.8 10.1 99.9 10.3 100 10.4C100.1 10.5 100.5 10.7 101.1 10.8C101.7 10.9 102.1 11.1 102.3 11.2C102.6 11.4 102.9 11.5 103 11.8C103.2 12 103.2 12.3 103.2 12.6C103.2 12.9 103.1 13.2 102.9 13.4C102.7 13.7 102.5 13.9 102.2 14C101.9 14.1 101.5 14.2 101.1 14.2C100.6 14.2 100.2 14.1 99.8 14C99.5 13.9 99.2 13.6 99 13.3C99.1 13 99 12.6 99 12.3Z" fill="#231F20"/>
<path d="M104.1 12.3L104.8 12.2C104.8 12.5 104.9 12.7 105 12.9C105.1 13.1 105.3 13.2 105.6 13.3C105.9 13.4 106.1 13.5 106.5 13.5C106.8 13.5 107 13.5 107.2 13.4C107.4 13.3 107.6 13.2 107.7 13.1C107.8 13 107.9 12.8 107.9 12.6C107.9 12.4 107.9 12.3 107.7 12.1C107.6 12 107.4 11.9 107.2 11.8C107 11.7 106.7 11.7 106.2 11.5C105.7 11.4 105.3 11.3 105.1 11.2C104.8 11.1 104.6 10.9 104.5 10.7C104.4 10.5 104.3 10.3 104.3 10C104.3 9.70002 104.4 9.50002 104.5 9.20002C104.7 9.00002 104.9 8.80003 105.2 8.60003C105.5 8.50003 105.8 8.40002 106.2 8.40002C106.6 8.40002 107 8.50003 107.3 8.60003C107.6 8.70003 107.9 8.90002 108 9.20002C108.2 9.50002 108.3 9.70003 108.3 10.1L107.6 10.2C107.6 9.80002 107.4 9.60002 107.2 9.40002C107 9.20002 106.7 9.10003 106.2 9.10003C105.8 9.10003 105.4 9.20002 105.2 9.30002C105 9.50003 104.9 9.70002 104.9 9.90002C104.9 10.1 105 10.3 105.1 10.4C105.2 10.5 105.6 10.7 106.2 10.8C106.8 10.9 107.2 11.1 107.4 11.2C107.7 11.4 108 11.5 108.1 11.8C108.3 12 108.3 12.3 108.3 12.6C108.3 12.9 108.2 13.2 108 13.4C107.8 13.7 107.6 13.9 107.3 14C107 14.1 106.6 14.2 106.2 14.2C105.7 14.2 105.3 14.1 104.9 14C104.6 13.9 104.3 13.6 104.1 13.3C104.3 13 104.2 12.6 104.1 12.3Z" fill="#231F20"/>
<path d="M70.3999 21.9V16.4H74.0999V17H71.0999V18.7H73.6999V19.4H71.0999V21.9H70.3999Z" fill="#231F20"/>
<path d="M74.8999 19.2C74.8999 18.3 75.0999 17.6 75.5999 17C76.0999 16.5 76.6999 16.2 77.4999 16.2C77.9999 16.2 78.4999 16.3 78.8999 16.6C79.2999 16.8 79.5999 17.2 79.7999 17.6C79.9999 18 80.0999 18.5 80.0999 19.1C80.0999 19.7 79.9999 20.2 79.7999 20.6C79.5999 21 79.2999 21.4 78.7999 21.6C78.3999 21.8 77.8999 21.9 77.4999 21.9C76.9999 21.9 76.4999 21.8 76.0999 21.5C75.6999 21.2 75.3999 20.9 75.1999 20.5C74.9999 20.1 74.8999 19.7 74.8999 19.2ZM75.5999 19.2C75.5999 19.9 75.7999 20.4 76.0999 20.8C76.4999 21.2 76.8999 21.4 77.4999 21.4C78.0999 21.4 78.4999 21.2 78.8999 20.8C79.2999 20.4 79.3999 19.9 79.3999 19.1C79.3999 18.6 79.2999 18.3 79.1999 17.9C78.9999 17.6 78.7999 17.3 78.4999 17.1C78.1999 16.9 77.8999 16.8 77.4999 16.8C76.9999 16.8 76.4999 17 76.1999 17.3C75.7999 17.8 75.5999 18.4 75.5999 19.2Z" fill="#231F20"/>
<path d="M81.1997 21.9V16.4H83.6997C84.1997 16.4 84.5997 16.4 84.7997 16.6C85.0997 16.7 85.2997 16.9 85.3997 17.1C85.5997 17.4 85.5997 17.6 85.5997 17.9C85.5997 18.3 85.4997 18.6 85.1997 18.9C84.8997 19.2 84.5997 19.3 83.9997 19.4C84.1997 19.5 84.2997 19.6 84.3997 19.7C84.5997 19.9 84.7997 20.1 84.9997 20.4L85.9997 21.9H85.0997L84.3997 20.7C84.1997 20.4 83.9997 20.1 83.8997 19.9C83.7997 19.7 83.5997 19.6 83.4997 19.5C83.3997 19.4 83.2997 19.4 83.1997 19.4C83.0997 19.4 82.9997 19.4 82.7997 19.4H81.8997V21.9H81.1997ZM81.8997 18.8H83.4997C83.7997 18.8 84.0997 18.8 84.2997 18.7C84.4997 18.6 84.5997 18.5 84.6997 18.4C84.7997 18.2 84.7997 18.1 84.7997 17.9C84.7997 17.6 84.6997 17.4 84.4997 17.3C84.2997 17.1 83.9997 17 83.5997 17H81.7997L81.8997 18.8Z" fill="#231F20"/>
<path d="M90.3997 16.3H91.0997V19.5C91.0997 20.1 90.9997 20.5 90.8997 20.8C90.7997 21.1 90.4997 21.4 90.1997 21.6C89.8997 21.8 89.3997 21.9 88.8997 21.9C88.3997 21.9 87.9997 21.8 87.5997 21.6C87.2997 21.4 86.9997 21.2 86.8997 20.8C86.7997 20.4 86.6997 20 86.6997 19.4V16.2H87.3997V19.4C87.3997 19.9 87.3997 20.2 87.4997 20.5C87.5997 20.7 87.6997 20.9 87.9997 21C88.1997 21.1 88.4997 21.2 88.7997 21.2C89.2997 21.2 89.6997 21.1 89.9997 20.8C90.1997 20.6 90.2997 20.1 90.2997 19.4V16.3H90.3997Z" fill="#231F20"/>
<path d="M92.2998 21.9V16.4H93.3998L94.6998 20.3C94.7998 20.7 94.8998 20.9 94.9998 21.1C95.0998 20.9 95.1998 20.6 95.2998 20.2L96.5998 16.3H97.5998V21.8H96.8998V17.2L95.2998 21.8H94.5998L92.9998 17.1V21.8L92.2998 21.9Z" fill="#231F20"/>
<path d="M6.30015 10.1C6.70015 10.4 7.20015 10.7 7.60015 10.9C8.00015 11.1 8.40015 10.8 8.40015 10.4C8.40015 8.70002 9.40015 7.30002 10.9001 6.50002C11.5001 6.20002 11.0001 5.20002 10.3001 5.50002C8.50015 6.40002 7.30015 8.30002 7.30015 10.4C7.60015 10.2 7.90015 10.1 8.10015 9.90002C7.70015 9.60002 7.20015 9.30002 6.80015 9.10002C6.20015 8.70002 5.70015 9.70002 6.30015 10.1Z" fill="#231F20"/>
<path d="M2.6 9.29997C0.899998 10.2 0 12 0 13.9C0 14.2 0.299998 14.5 0.599998 14.5C3.3 14.2 7.5 15.2 7.2 18.7C7.6 18.7 7.9 18.7 8.3 18.7C8.3 17 9.3 15.4 10.9 14.8C11.6 14.5 11.3 13.5 10.6 13.7C8.5 14.5 7.1 16.4 7.1 18.7C7.1 19.4 8.2 19.4 8.2 18.7C8.6 14.6 3.8 13.1 0.5 13.4C0.7 13.6 0.899998 13.8 1.1 14C1.1 12.5 1.8 11.1 3.2 10.4C3.8 9.89996 3.3 8.89997 2.6 9.29997Z" fill="#231F20"/>
<path d="M13.8999 14.7C15.3999 15.2 16.3999 16.8 16.1999 18.4C16.5999 18.4 16.8999 18.5 17.2999 18.6C17.3999 17.2 18.0999 15.8 19.4999 15.3C21.0999 14.7 22.7999 14.5 24.4999 14.4C24.7999 14.4 25.0999 14.1 25.0999 13.8C24.9999 11.8 23.7999 9.89999 21.9999 8.99999C21.3999 8.69999 20.7999 9.59999 21.3999 9.99999C22.8999 10.8 23.7999 12.2 23.8999 13.9C24.0999 13.7 24.2999 13.5 24.4999 13.3C22.5999 13.3 20.3999 13.6 18.6999 14.4C17.0999 15.2 16.2999 16.9 16.1999 18.6C16.1999 19.2 17.1999 19.4 17.2999 18.8C17.6999 16.6 16.3999 14.5 14.1999 13.8C13.4999 13.4 13.1999 14.5 13.8999 14.7Z" fill="#231F20"/>
<path d="M17.8002 8.89998C17.4002 9.19998 16.9002 9.49998 16.5002 9.69998C16.8002 9.89998 17.1002 9.99998 17.3002 10.2C17.3002 8.09998 16.1002 6.29998 14.3002 5.29998C13.7002 4.99998 13.1002 5.89998 13.7002 6.29998C15.2002 7.09998 16.2002 8.49998 16.2002 10.2C16.2002 10.6 16.7002 10.9 17.0002 10.7C17.4002 10.4 17.9002 10.1 18.3002 9.89998C19.0002 9.49998 18.4002 8.59998 17.8002 8.89998Z" fill="#231F20"/>
<path d="M4.90019 8.69999C3.70019 8.69999 2.7002 7.69999 2.7002 6.49999C2.7002 5.29999 3.70019 4.29999 4.90019 4.29999C6.10019 4.29999 7.10019 5.29999 7.10019 6.49999C7.10019 7.69999 6.10019 8.69999 4.90019 8.69999ZM4.90019 4.69999C3.90019 4.69999 3.10019 5.49999 3.10019 6.49999C3.10019 7.49999 3.90019 8.29999 4.90019 8.29999C5.90019 8.29999 6.7002 7.49999 6.7002 6.49999C6.7002 5.49999 5.80019 4.69999 4.90019 4.69999Z" fill="#231F20"/>
<path d="M12.3001 13.3C11.1001 13.3 10.1001 12.3 10.1001 11.1C10.1001 9.89996 11.1001 8.89996 12.3001 8.89996C13.5001 8.89996 14.5001 9.89996 14.5001 11.1C14.5001 12.3 13.5001 13.3 12.3001 13.3ZM12.3001 9.19996C11.3001 9.19996 10.5001 9.99996 10.5001 11C10.5001 12 11.3001 12.8 12.3001 12.8C13.3001 12.8 14.1001 12 14.1001 11C14.1001 10.1 13.3001 9.19996 12.3001 9.19996Z" fill="#231F20"/>
<path d="M12.3001 5.19999C11.1001 5.19999 10.1001 4.19999 10.1001 2.99999C10.1001 1.79999 11.1001 0.799988 12.3001 0.799988C13.5001 0.799988 14.5001 1.79999 14.5001 2.99999C14.5001 4.19999 13.5001 5.19999 12.3001 5.19999ZM12.3001 1.19999C11.3001 1.19999 10.5001 1.99999 10.5001 2.99999C10.5001 3.99999 11.3001 4.79999 12.3001 4.79999C13.3001 4.79999 14.1001 3.99999 14.1001 2.99999C14.1001 1.99999 13.3001 1.19999 12.3001 1.19999Z" fill="#231F20"/>
<path d="M19.9002 8.69999C18.7002 8.69999 17.7002 7.69999 17.7002 6.49999C17.7002 5.29999 18.7002 4.29999 19.9002 4.29999C21.1002 4.29999 22.1002 5.29999 22.1002 6.49999C22.1002 7.69999 21.1002 8.69999 19.9002 8.69999ZM19.9002 4.69999C18.9002 4.69999 18.1002 5.49999 18.1002 6.49999C18.1002 7.49999 18.9002 8.29999 19.9002 8.29999C20.9002 8.29999 21.7002 7.49999 21.7002 6.49999C21.7002 5.49999 20.9002 4.69999 19.9002 4.69999Z" fill="#231F20"/>
<path d="M26.2998 20.4V0.400024C27.1998 0.800024 27.9998 1.10002 28.8998 1.50002C28.8998 4.00002 28.8998 6.40002 28.8998 8.90002C32.3998 8.90002 35.8998 8.90002 39.4998 8.90002C39.4998 6.10002 39.4998 3.40002 39.3998 0.600024C39.7998 0.600024 40.2998 0.700024 40.6998 0.700024C40.5998 7.10002 40.4998 13.6 40.4998 20C40.1998 20 39.7998 19.9 39.4998 19.9C39.4998 17.2 39.4998 14.5 39.3998 11.8C35.8998 11.8 32.3998 11.8 28.7998 11.8C28.7998 14.7 28.7998 17.5 28.8998 20.4H26.2998Z" fill="#231F20"/>
<path d="M29.2 20.7H26V0L29.1 1.3V8.6H39.1L39 0.3L40.9 0.5L40.8 20.4L39.2 20.2L39.1 12.1H29.1L29.2 20.7ZM26.6 20.1H28.7L28.6 11.5H39.7L39.8 19.7H40.3L40.5 1H39.7L39.8 9.2H28.6V1.7L26.6 0.9V20.1Z" fill="#231F20"/>
<path d="M51.7998 9.59998C51.9998 9.39998 53.5998 6.89998 52.4998 3.99998C51.7998 1.99998 49.9998 0.599976 48.1998 0.199976C47.8998 0.0999756 47.6998 0.0999756 47.4998 0.0999756C44.3998 0.0999756 41.3998 0.199976 38.2998 0.199976C38.2998 6.99998 38.2998 13.7 38.3998 20.5C39.4998 20.5 40.5998 20.5 41.6998 20.5C41.6998 17.7 41.7998 14.9 41.7998 12.1C44.1998 12.1 46.5998 12.1 49.0998 12.1C50.5998 12.8 51.2998 14.3 50.8998 15.5C50.4998 16.7 49.1998 17 49.0998 17C47.4998 17 45.9998 17 44.3998 17C43.9998 18.1 43.5998 19.3 43.1998 20.4C45.3998 20.4 47.4998 20.3 49.6998 20.3C49.9998 20.2 52.7998 19.4 53.7998 16.6C54.5998 14.3 53.8998 11.4 51.7998 9.59998ZM47.5998 8.59998C45.6998 8.59998 43.6998 8.59998 41.7998 8.59998C41.7998 6.89998 41.7998 5.29998 41.7998 3.59998C43.6998 3.59998 45.5998 3.59998 47.4998 3.59998C48.6998 3.79998 49.4998 4.89998 49.4998 6.09998C49.5998 7.29998 48.7998 8.39998 47.5998 8.59998Z" fill="#231F20"/>
<path d="M54 20.3V0.299988H67.5C67.1 1.09999 66.7 1.89999 66.3 2.69999C63.1 2.69999 59.9 2.69999 56.7 2.69999V8.89999C59.1 8.89999 61.5 8.89999 64 8.89999C63.6 9.69999 63.3 10.5 62.9 11.4C60.9 11.4 58.8 11.3 56.8 11.3V20.4L54 20.3Z" fill="#231F20"/>
<path d="M56.8002 20.5H53.7002V0.0999756H67.8002L66.3002 2.89998H56.8002V8.59998H64.2002L62.9002 11.5L56.9002 11.4L56.8002 20.5ZM54.2002 20.1H56.4002V11L62.6002 11.1L63.5002 9.09998H56.4002V8.79998V2.39998H66.1002L67.1002 0.499976H54.2002V20.1Z" fill="#231F20"/>
</svg>
