<svg width="176" height="40" viewBox="0 0 176 40" fill="none" xmlns="http://www.w3.org/2000/svg">
<path d="M23.086 30.4181C23.086 26.7085 20.5362 24.3994 17.2634 23.8316V23.7559C20.0415 22.8474 21.9063 20.7655 21.9063 17.6616C21.9063 11.9836 16.6545 10.4316 12.2779 10.4316H0.975098V38.6322H12.2779C17.682 38.6322 23.086 36.5503 23.086 30.4181ZM15.3225 18.6079C15.3225 20.6141 13.8383 21.674 11.2885 21.674H7.59696V15.8446H10.9459C13.8383 15.8446 15.3225 16.6774 15.3225 18.6079ZM16.2358 29.7746C16.2358 32.5378 13.6099 33.1056 11.4407 33.1056H7.59696V26.6706H11.4026C14.333 26.6706 16.2358 27.4277 16.2358 29.7746ZM57.1468 24.3994C57.1468 15.3525 50.601 9.67456 41.6957 9.67456C32.8666 9.67456 26.2828 15.3525 26.2828 24.3994C26.2828 33.3328 32.8285 39.3514 41.6957 39.3514C50.563 39.3892 57.1468 33.3328 57.1468 24.3994ZM49.8018 24.3994C49.8018 29.5096 46.4528 33.1435 41.6577 33.1435C36.8625 33.1435 33.5897 29.4717 33.5897 24.3994C33.5897 19.4785 36.8625 15.8068 41.6577 15.8068C46.4528 15.8068 49.8018 19.4785 49.8018 24.3994ZM87.4399 38.6322V10.4316H80.78L80.9322 28.8282H80.818L69.4391 10.4316H61.6375V38.6322H68.2974L68.1451 20.1977H68.2593L79.6763 38.6322H87.4399ZM111.948 16.261V10.4316H93.3006V38.6322H100.075V27.6548H111.035V22.0525H100.075V16.261H111.948ZM123.213 38.6322V18.7593H116.325V38.5943H123.213V38.6322ZM152.25 38.6322L144.829 26.557C148.483 25.4593 150.728 22.7339 150.728 18.9486C150.728 12.5135 145.324 10.4316 139.882 10.4316H129.074V38.6322H135.81V27.4277H138.131L144.258 38.6322H152.25ZM143.954 19.0621C143.954 21.939 141.176 22.4689 139.007 22.4689H135.772V15.9203H139.425C141.442 15.9203 143.954 16.4503 143.954 19.0621ZM175.389 38.6322V32.8028H162.221V26.9356H173.981V21.4847H162.221V16.1853H174.666V10.4316H155.599V38.6322H175.389Z" fill="#2E2425"/>
<path fill-rule="evenodd" clip-rule="evenodd" d="M120.891 5.24572C121.576 3.12595 120.701 1.61182 118.494 0.779053C120.054 2.70956 119.902 4.82933 117.999 7.06267C115.906 9.56097 115.031 11.7943 115.677 13.687C116.477 16.1853 118.418 16.8666 119.826 16.8666C121.234 16.8666 123.479 15.996 124.088 13.687C124.697 11.4536 124.659 9.14459 123.746 6.75984C123.936 8.27397 123.669 9.40956 123.022 10.1666C122.109 11.2644 121.196 11.3401 120.397 10.1666C119.788 9.22029 120.13 7.55476 120.891 5.24572Z" fill="#DB6020"/>
</svg>
