<svg width="128" height="24" viewBox="0 0 128 24" fill="none" xmlns="http://www.w3.org/2000/svg">
<path fill-rule="evenodd" clip-rule="evenodd" d="M59.7 14.1H56.1L57.9 9.4L59.7 14.1ZM60.9 17.3L61.7 19.4H65.7L59.7 4.5H56.1L50.1 19.4H54L54.8 17.3H60.9ZM43.7 19.4V10.6L39.8 15.3L35.9 10.6V19.4H32V4.5H35.9L39.9 9.6L43.9 4.5H47.8V19.4H43.7ZM68.2 4.5V19.4H72.1V7.9H77.6V4.5H68.2ZM90.1 13.5V19.3H94V4.5H90.1V10H84.3V4.5H80.4V19.4H84.3V13.6H90.1V13.5ZM118.6 19.4V7.9H114V4.5H127.1V8H122.5V19.4H118.6ZM107.4 10.9V19.4H111.3V4.5H107.9L101.8 12.9V4.5H97.9V19.4H101.2L107.4 10.9ZM0 7.1C0 5.2 0.7 3.4 2.1 2.1C3.5 0.7 5.3 0 7.2 0H23.8V3.6H7.2C6.3 3.6 5.4 4 4.7 4.6C4 5.3 3.7 6.1 3.7 7.1V13.2C3.5 14.8 2.3 16.1 0.7 16.4H0V7.1ZM0 23.8V20.2H16.6C17.5 20.2 18.4 19.8 19.1 19.2C19.8 18.6 20.1 17.7 20.1 16.7V10.9C20.1 9.2 21.4 7.7 23.1 7.4L23.7 7.3V16.6C23.7 18.5 23 20.3 21.6 21.6C20.3 22.9 18.4 23.7 16.5 23.7H0V23.8ZM14.1 16.4V11.8L11.9 14.3L9.7 11.8V16.4H6.8V7.4H9.6L11.9 10.3L14.2 7.4H17V16.5H14.1V16.4Z" fill="black"/>
</svg>
