<svg width="145" height="34" viewBox="0 0 145 34" fill="none" xmlns="http://www.w3.org/2000/svg">
<path d="M3.2 11.1L5.6 20.3L8.1 11H11.2V22.6H9V14.3H8.9L6.8 22.6H4.4L2.3 14.3V22.6H0V11L3.2 11.1Z" fill="black"/>
<path d="M30.5002 11C32.0002 11 35.8002 11.6 35.8002 16.8C35.8002 22 32.0002 22.6 30.5002 22.6C29.0002 22.6 25.2002 22 25.2002 16.8C25.2002 11.7 29.0002 11 30.5002 11ZM30.5002 20.7C31.7002 20.7 33.5002 19.9 33.5002 16.8C33.5002 13.7 31.7002 12.9 30.5002 12.9C29.3002 12.9 27.5002 13.7 27.5002 16.8C27.5002 19.9 29.2002 20.7 30.5002 20.7Z" fill="black"/>
<path d="M18.1999 11C19.6999 11 23.4999 11.6 23.4999 16.8C23.4999 22 19.6999 22.6 18.1999 22.6C16.6999 22.6 12.8999 22 12.8999 16.8C12.8999 11.7 16.6999 11 18.1999 11ZM18.1999 20.7C19.3999 20.7 21.1999 19.9 21.1999 16.8C21.1999 13.7 19.4999 12.9 18.1999 12.9C16.9999 12.9 15.1999 13.7 15.1999 16.8C15.1999 19.9 16.8999 20.7 18.1999 20.7Z" fill="black"/>
<path d="M40 11L44.6 19.1V11H46.9V22.6H44.5L39.8 14.3V22.6H37.5V11H40Z" fill="black"/>
<path d="M53.8999 18.1H49.3999V16.1H53.8999V18.1Z" fill="black"/>
<path d="M60.6998 22.7H58.2998V13H54.7998V11H64.1998V13H60.6998V22.7Z" fill="black"/>
<path d="M68.4 22.7H66V11H71.9C75 11 75.5 13.3 75.5 14.3C75.5 15.6 74.9 16.7 73.7 17.1C74.6 17.5 75.2 17.9 75.2 20C75.2 21.7 75.2 22.1 75.7 22.3V22.6H73C72.8 22 72.7 21.4 72.7 20.2C72.7 18.6 72.6 18 70.8 18H68.3V22.7H68.4ZM68.4 16.2H71.3C72.6 16.2 73.2 15.8 73.2 14.6C73.2 14 72.9 13.1 71.5 13.1H68.5V16.2H68.4Z" fill="black"/>
<path d="M83.4996 11L87.5996 22.6H84.9996L84.1996 20.2H79.8996L79.0996 22.6H76.5996L80.6996 11H83.4996ZM80.4996 18.3H83.5996L81.9996 13.7L80.4996 18.3Z" fill="black"/>
<path d="M88.3999 11H93.4999C97.3999 11 98.1999 14.3 98.1999 16.5C98.1999 19 97.1999 22.6 93.3999 22.6H88.3999V11ZM90.7999 20.7H93.1999C95.1999 20.7 95.7999 18.7 95.7999 16.8C95.7999 13.4 94.1999 13.1 93.0999 13.1H90.7999V20.7Z" fill="black"/>
<path d="M108.5 11V13H102.3V15.4H108V17.4H102.3V20.6H108.7V22.6H100V11H108.5Z" fill="black"/>
<path d="M128.2 33.8C137.533 33.8 145.1 26.2336 145.1 16.9C145.1 7.56639 137.533 0 128.2 0C118.866 0 111.3 7.56639 111.3 16.9C111.3 26.2336 118.866 33.8 128.2 33.8Z" fill="black"/>
<path d="M128.2 32.9C137.036 32.9 144.2 25.7366 144.2 16.9C144.2 8.06347 137.036 0.900024 128.2 0.900024C119.363 0.900024 112.2 8.06347 112.2 16.9C112.2 25.7366 119.363 32.9 128.2 32.9Z" fill="black"/>
<path d="M128.7 10.4C137.7 15.4 143.4 15.6 143.8 13.2C142.2 6.09999 135.8 0.799988 128.2 0.799988C120.7 0.799988 114.4 5.99999 112.7 13C116.9 8.49999 122.7 7.09999 128.7 10.4Z" fill="black"/>
<path d="M117.3 22.7H114.9V20.3H117.3V22.7Z" fill="white"/>
<path d="M121.4 22.7H119V11H124.9C128 11 128.5 13.3 128.5 14.3C128.5 15.6 127.9 16.7 126.7 17.1C127.6 17.5 128.2 17.9 128.2 20C128.2 21.7 128.2 22.1 128.7 22.3V22.6H126C125.8 22 125.7 21.4 125.7 20.2C125.7 18.6 125.6 18 123.8 18H121.3V22.7H121.4ZM121.4 16.2H124.3C125.6 16.2 126.2 15.8 126.2 14.6C126.2 14 125.9 13.1 124.5 13.1H121.5V16.2H121.4Z" fill="white"/>
<path d="M133 11V18.3C133 19.9 134 20.6 135.1 20.6C136.8 20.6 137.4 19.8 137.4 18.4V11H139.8V18.2C139.8 21.3 138.1 22.6 135.2 22.6C133.2 22.6 130.5 21.8 130.5 18.4V11H133Z" fill="white"/>
</svg>
